<svg width="13" height="15" viewBox="0 0 13 15" fill="none" xmlns="http://www.w3.org/2000/svg">
<path d="M10.2177 1.92562C9.62323 1.25808 8.91114 0.75414 8.03647 0.483225L8.03643 0.483214C7.12326 0.200214 6.19826 0.177081 5.26591 0.401245L5.2659 0.401248C4.22679 0.65102 3.40085 1.21604 2.7226 2.00233L2.72255 2.00238C2.0065 2.832 1.6931 3.79186 1.69735 4.86416L1.69735 4.86438C1.69867 5.29225 1.69824 5.72055 1.6978 6.15621C1.69758 6.37676 1.69735 6.5992 1.69735 6.82443V7.07443H1.44735C1.39689 7.07443 1.35033 7.07392 1.30607 7.07343C1.21738 7.07246 1.13789 7.07158 1.05469 7.07513C0.657301 7.0924 0.371267 7.321 0.283319 7.65995C0.261063 7.74602 0.258025 7.84619 0.258025 7.97469V7.97495C0.257396 8.58795 0.258116 9.20145 0.258837 9.81525C0.260387 11.1351 0.261939 12.4562 0.250075 13.7765L10.2177 1.92562ZM10.2177 1.92562C10.8668 2.65463 11.2405 3.484 11.2823 4.423L11.2823 4.4231C11.3051 4.93098 11.3055 5.43656 11.3059 5.94837C11.306 6.17717 11.3062 6.40722 11.3084 6.63928C11.3087 6.6748 11.3086 6.70926 11.3085 6.74886C11.3084 6.77099 11.3084 6.79473 11.3084 6.82115V7.07115H11.5584C11.598 7.07115 11.6347 7.07109 11.6696 7.07104L10.2177 1.92562ZM9.60968 7.06318H9.38102H3.6252H3.39869L3.37641 6.83777C3.37638 6.83741 3.37621 6.83613 3.37595 6.83409C3.37394 6.81868 3.36627 6.75977 3.36627 6.72178V6.7216C3.36641 6.51817 3.36547 6.31348 3.36452 6.10804C3.36227 5.61954 3.36 5.12675 3.3723 4.6363C3.3723 4.63628 3.3723 4.63626 3.3723 4.63623L3.62222 4.6425C3.65399 3.36146 4.73745 2.2412 6.08347 2.07762C7.51089 1.90419 8.79089 2.63822 9.23956 3.90847L9.60968 7.06318ZM9.60968 7.06318L9.63002 6.83542M9.60968 7.06318L9.63002 6.83542M9.63002 6.83542C9.63033 6.83196 9.63089 6.82678 9.63157 6.82037M9.63002 6.83542L9.63157 6.82037M9.63157 6.82037C9.63426 6.79532 9.63896 6.75139 9.63896 6.71709M9.63157 6.82037L9.63896 6.71709M9.63896 6.71709C9.63896 6.53411 9.63991 6.34999 9.64086 6.16514M9.63896 6.71709L9.64086 6.16514M9.64086 6.16514C9.64336 5.6806 9.64588 5.19106 9.6314 4.70403M9.64086 6.16514L9.6314 4.70403M9.6314 4.70403C9.62285 4.41434 9.57583 4.10901 9.47522 3.82499L9.6314 4.70403ZM11.8515 7.07115C12.1541 7.07364 12.3741 7.16266 12.5165 7.29638C12.6568 7.42827 12.7468 7.62698 12.7472 7.90148V7.9016C12.7512 9.90749 12.7517 11.9136 12.7437 13.9191L12.7437 13.9193C12.7433 14.0559 12.7085 14.2066 12.6484 14.3344L12.6482 14.3348C12.5491 14.5464 12.3503 14.675 12.0548 14.75H0.949077C0.679149 14.6798 0.513902 14.5604 0.412215 14.4162C0.304623 14.2636 0.247644 14.0542 0.250074 13.7765L11.8515 7.07115Z" fill="#57F98E" stroke="#080808" stroke-width="0.5"/>
</svg>
