<svg width="13" height="18" viewBox="0 0 13 18" fill="none" xmlns="http://www.w3.org/2000/svg">
<path d="M1.19773 8.99951C1.17407 8.99959 1.15066 8.99978 1.12721 9.00014C0.455507 9.00887 0.00292308 9.4753 0.00193382 10.1755L1.19773 8.99951ZM1.19773 8.99951V8.99964V9.00014H1.44773L1.19773 8.99951ZM12.094 17.7274C12.0702 17.7343 12.0492 17.7426 12.034 17.749H0.945431C0.662255 17.6671 0.463257 17.5314 0.361271 17.2937L0.361234 17.2936C0.296631 17.1432 0.256779 16.9716 0.256385 16.8184L0.256384 16.8181C0.247978 14.6043 0.24946 12.3903 0.251934 10.1758L3.36668 5.26398C3.36203 6.2091 3.36284 7.1547 3.36364 8.09928C3.36387 8.36147 3.36409 8.62359 3.3642 8.88559H3.61304L3.3642 8.88569C3.36421 8.91252 3.36715 8.94982 3.36958 8.98065C3.37059 8.99354 3.37152 9.0053 3.3721 9.01469L3.38673 9.24911H3.62162H3.81749C4.52887 9.24911 5.24033 9.24926 5.95184 9.2494C7.90857 9.24981 9.86565 9.25021 11.8224 9.24757M12.094 17.7274L12.1633 17.9676L12.093 17.7277C12.0934 17.7276 12.0937 17.7275 12.094 17.7274ZM12.094 17.7274C12.3134 17.6629 12.4727 17.5518 12.5781 17.4098C12.6838 17.2674 12.7476 17.0776 12.7478 16.8358V16.8356C12.7507 14.6099 12.7517 12.3841 12.7443 10.1583V10.1582C12.7439 10.0116 12.7132 9.8575 12.6576 9.74001L12.6574 9.73964C12.5707 9.55573 12.458 9.43772 12.3281 9.36324C12.1959 9.2875 12.0293 9.24736 11.8224 9.24757M11.8224 9.24757L11.8221 8.99932L11.8223 9.24757C11.8223 9.24757 11.8224 9.24757 11.8224 9.24757ZM0.251934 10.1757C0.252367 9.88029 0.347157 9.65382 0.493304 9.50175C0.638939 9.35022 0.853538 9.25372 1.13046 9.25012L1.13105 9.25011C1.1943 9.24914 1.25545 9.24943 1.32452 9.24976C1.36261 9.24995 1.40312 9.25014 1.44773 9.25014H1.69773V9.00014V8.99964V8.99914V8.99864V8.99815V8.99765V8.99715V8.99665V8.99616V8.99566V8.99516V8.99467V8.99417V8.99368V8.99318V8.99269V8.9922V8.9917V8.99121V8.99072V8.99022V8.98973V8.98924V8.98875V8.98826V8.98777V8.98728V8.98679V8.9863V8.98581V8.98532V8.98483V8.98435V8.98386V8.98337V8.98288V8.9824V8.98191V8.98143V8.98094V8.98046V8.97997V8.97949V8.979V8.97852V8.97804V8.97755V8.97707V8.97659V8.97611V8.97563V8.97515V8.97466V8.97418V8.9737V8.97322V8.97275V8.97227V8.97179V8.97131V8.97083V8.97035V8.96988V8.9694V8.96892V8.96845V8.96797V8.9675V8.96702V8.96655V8.96607V8.9656V8.96512V8.96465V8.96418V8.9637V8.96323V8.96276V8.96229V8.96181V8.96134V8.96087V8.9604V8.95993V8.95946V8.95899V8.95852V8.95805V8.95759V8.95712V8.95665V8.95618V8.95571V8.95525V8.95478V8.95431V8.95385V8.95338V8.95292V8.95245V8.95199V8.95152V8.95106V8.95059V8.95013V8.94967V8.9492V8.94874V8.94828V8.94782V8.94735V8.94689V8.94643V8.94597V8.94551V8.94505V8.94459V8.94413V8.94367V8.94321V8.94275V8.94229V8.94183V8.94138V8.94092V8.94046V8.94V8.93955V8.93909V8.93863V8.93818V8.93772V8.93727V8.93681V8.93636V8.9359V8.93545V8.935V8.93454V8.93409V8.93364V8.93318V8.93273V8.93228V8.93183V8.93137V8.93092V8.93047V8.93002V8.92957V8.92912V8.92867V8.92822V8.92777V8.92732V8.92687V8.92642V8.92597V8.92553V8.92508V8.92463V8.92418V8.92374V8.92329V8.92284V8.9224V8.92195V8.9215V8.92106V8.92061V8.92017V8.91972V8.91928V8.91883V8.91839V8.91795V8.9175V8.91706V8.91662V8.91617V8.91573V8.91529V8.91485V8.9144V8.91396V8.91352V8.91308V8.91264V8.9122V8.91176V8.91132V8.91088V8.91044V8.91V8.90956V8.90912V8.90868V8.90824V8.90781V8.90737V8.90693V8.90649V8.90606V8.90562V8.90518V8.90475V8.90431V8.90387V8.90344V8.903V8.90257V8.90213V8.9017V8.90126V8.90083V8.90039V8.89996V8.89952V8.89909V8.89866V8.89822V8.89779V8.89736V8.89692V8.89649V8.89606V8.89563V8.8952V8.89476V8.89433V8.8939V8.89347V8.89304V8.89261V8.89218V8.89175V8.89132V8.89089V8.89046V8.89003V8.8896V8.88917V8.88874V8.88832V8.88789V8.88746V8.88703V8.8866V8.88618V8.88575V8.88532V8.88489V8.88447V8.88404V8.88361V8.88319V8.88276V8.88234V8.88191V8.88148V8.88106V8.88064V8.88021V8.87979V8.87936V8.87894V8.87851V8.87809V8.87766V8.87724V8.87682V8.87639V8.87597V8.87555V8.87513V8.8747V8.87428V8.87386V8.87344V8.87301V8.87259V8.87217V8.87175V8.87133V8.87091V8.87049V8.87007V8.86965V8.86923V8.8688V8.86839V8.86796V8.86755V8.86713V8.86671V8.86629V8.86587V8.86545V8.86503V8.86461V8.86419V8.86378V8.86336V8.86294V8.86252V8.8621V8.86169V8.86127V8.86085V8.86043V8.86002V8.8596V8.85918V8.85877V8.85835V8.85793V8.85752V8.8571V8.85669V8.85627V8.85586V8.85544V8.85503V8.85461V8.85419V8.85378V8.85336V8.85295V8.85254V8.85212V8.85171V8.85129V8.85088V8.85047V8.85005V8.84964V8.84923V8.84881V8.8484V8.84799V8.84757V8.84716V8.84675V8.84633V8.84592V8.84551V8.8451V8.84469V8.84427V8.84386V8.84345V8.84304V8.84263V8.84222V8.8418V8.84139V8.84098V8.84057V8.84016V8.83975V8.83934V8.83893V8.83852V8.83811V8.8377V8.83729V8.83688V8.83647V8.83606V8.83565V8.83524V8.83483V8.83442V8.83401V8.8336V8.83319V8.83278V8.83237V8.83197V8.83156V8.83115V8.83074V8.83033V8.82992V8.82951V8.82911V8.8287V8.82829V8.82788V8.82747V8.82707V8.82666V8.82625V8.82584V8.82544V8.82503V8.82462V8.82421V8.82381V8.8234V8.82299V8.82259V8.82218V8.82177V8.82137V8.82096V8.82055V8.82015V8.81974V8.81933V8.81893V8.81852V8.81812V8.81771V8.8173V8.8169V8.81649V8.81609V8.81568V8.81528V8.81487V8.81446V8.81406V8.81365V8.81325V8.81284V8.81244V8.81203V8.81163V8.81122V8.81082V8.81041V8.81001V8.8096V8.8092V8.80879V8.80839V8.80798V8.80758V8.80717V8.80677V8.80637V8.80596V8.80556V8.80515V8.80475V8.80434V8.80394V8.80354V8.80313V8.80273V8.80232V8.80192V8.80151V8.80111V8.80071V8.8003V8.7999V8.7995V8.79909V8.79869V8.79828V8.79788V8.79748V8.79707V8.79667V8.79627V8.79586V8.79546V8.79506V8.79465V8.79425V8.79384V8.79344V8.79304V8.79263V8.79223V8.79183V8.79142V8.79102V8.79062V8.79021V8.78981V8.78941V8.789V8.7886V8.7882V8.78779V8.78739V8.78699V8.78658V8.78618V8.78578V8.78537V8.78497V8.78457V8.78416V8.78376V8.78336V8.78296V8.78255V8.78215V8.78174V8.78134V8.78094V8.78054V8.78013V8.77973V8.77933V8.77892V8.77852V8.77812V8.77797C1.69849 8.39679 1.69782 8.01647 1.69715 7.6367C1.69563 6.76922 1.69411 5.90456 1.70956 5.03891L1.70956 5.03889C1.73307 3.71637 2.24101 2.60636 3.14977 1.67778C3.84037 0.972834 4.64657 0.510512 5.59255 0.336029C7.99768 -0.107086 10.037 1.20656 10.9418 3.31903L10.9418 3.31907C11.2017 3.9256 11.3081 4.5768 11.3 5.2539L11.3 5.25395C11.2968 5.5262 11.1185 5.716 10.9014 5.73467L10.9012 5.73468C10.6196 5.7591 10.3319 5.75867 10.0483 5.7356L10.0479 5.73557C9.83943 5.71896 9.67286 5.55886 9.64978 5.30983L9.64975 5.30951C9.64607 5.27035 9.6425 5.23066 9.63888 5.19051C9.60822 4.85009 9.57459 4.4766 9.44852 4.11449C8.96784 2.73248 7.53334 1.84934 6.12295 2.01794L6.12287 2.01795C4.8024 2.17624 3.66506 3.29346 3.43265 4.55762C3.38987 4.78961 3.36774 5.02834 3.36668 5.26387L0.251934 10.1757Z" fill="#57F98E" stroke="#080808" stroke-width="0.5"/>
</svg>
